# xmcd
#
# Track frame offsets:
#	150
#	5276
#	21283
#	44911
#	62646
#	78444
#	89909
#	94408
#	116824
#	132831
#	150412
#	165862
#	180573
#	185769
#	201999
#	223063
#	241912
#
# Disc length: 3496 seconds
#
# Revision: 0
# Processed by: cddbd v1.5PL3 Copyright (c) Steve Scherf et al.
# Submitted via: dBpowerAMP V4.0
#
DISCID=ee0da611
DTITLE=India Arie - Voyage To India
DYEAR=1900
DGENRE=
TTITLE0=Growth
TTITLE1=Little Things
TTITLE2=Talk To Her
TTITLE3=Slow Down
TTITLE4=The Truth
TTITLE5=Beautiful Suprise
TTITLE6=Healing
TTITLE7=Get It Together
TTITLE8=Headed In The Right Direction
TTITLE9=Can I Walk With You
TTITLE10=The One
TTITLE11=Complicated Melody
TTITLE12=Gratitude
TTITLE13=Good Man
TTITLE14=God Is Real
TTITLE15=BonusTrack: Interested
TTITLE16=UkBonus: Brown Skin (Five)
EXTD=
EXTT0=
EXTT1=
EXTT2=
EXTT3=
EXTT4=
EXTT5=
EXTT6=
EXTT7=
EXTT8=
EXTT9=
EXTT10=
EXTT11=
EXTT12=
EXTT13=
EXTT14=
EXTT15=
EXTT16=
PLAYORDER=
